<svg width="120" height="122" viewBox="0 0 120 122" fill="none" xmlns="http://www.w3.org/2000/svg">
<path d="M62.259 117.787C62.0573 115.565 63.469 113.747 65.6875 113.545C67.906 113.343 69.7211 114.757 69.9228 116.979C70.1245 119.201 68.7127 121.019 66.4943 121.221C66.2926 121.221 66.0909 121.221 66.0909 121.221C64.0741 121.019 62.4606 119.605 62.259 117.787ZM37.6539 117.585C35.6371 116.777 34.6287 114.555 35.4354 112.535C36.2422 110.515 38.4606 109.505 40.4775 110.313C42.4943 111.121 43.5027 113.343 42.6959 115.363C42.0909 116.979 40.6791 117.787 39.0657 117.787C38.6623 117.787 38.0573 117.787 37.6539 117.585ZM88.2758 109.707C87.0657 107.889 87.469 105.465 89.2842 104.253C91.0993 103.041 93.5195 103.445 94.7295 105.263C95.9396 107.081 95.5363 109.505 93.7211 110.717C93.1161 111.121 92.3094 111.323 91.5027 111.323C90.2926 111.323 89.0825 110.919 88.2758 109.707ZM13.6539 101.021C12.2422 99.4048 12.4438 96.9807 14.0573 95.5667C15.6707 94.1527 18.0909 94.3547 19.5027 95.9707C20.9144 97.5868 20.7127 100.011 19.0993 101.425C18.2926 102.031 17.4859 102.435 16.4775 102.435C15.469 102.435 14.4606 102.031 13.6539 101.021ZM107.839 90.5166C106.024 89.5066 105.217 87.0826 106.225 85.2645C107.234 83.4465 109.654 82.6385 111.469 83.6485C113.284 84.6585 114.091 87.0826 113.082 88.9006C112.477 90.3146 111.066 90.9206 109.654 90.9206C109.049 90.9206 108.444 90.9206 107.839 90.5166ZM0.141319 75.3664C-0.463723 73.3464 0.948042 71.1243 2.96485 70.7203C4.98166 70.1143 7.20014 71.5283 7.6035 73.5484C8.20855 75.5684 6.79678 77.7904 4.77997 78.1944C4.37661 78.1944 4.17493 78.3964 3.77157 78.3964C2.15813 78.1944 0.544681 76.9824 0.141319 75.3664ZM112.276 60.6201C112.276 60.4181 112.276 60.6201 112.276 60.6201C112.276 60.4181 112.276 60.4181 112.276 60.4181C112.276 58.1961 114.091 56.5801 116.108 56.5801C118.326 56.5801 119.94 58.3981 119.94 60.4181C119.94 60.4181 119.94 60.4181 119.94 60.6201C119.94 60.6201 119.94 60.6201 119.94 60.8221C119.94 63.0442 118.125 64.6602 116.108 64.6602C114.091 64.4582 112.276 62.6402 112.276 60.6201ZM2.96485 50.722C0.948042 50.116 -0.463723 48.0959 0.141319 46.0759C0.746361 44.0559 2.76317 42.6418 4.77997 43.2479C6.79678 43.8539 8.20855 45.8739 7.6035 47.8939C7.20014 49.712 5.5867 50.924 3.77157 50.924C3.56989 50.924 3.16653 50.924 2.96485 50.722ZM106.024 35.7737C105.015 33.9557 105.822 31.5317 107.637 30.5216C109.452 29.5116 111.872 30.3196 112.881 32.1377C113.889 33.9557 113.082 36.3797 111.267 37.3898C110.662 37.7938 110.057 37.7938 109.452 37.7938C108.242 37.7938 106.83 36.9858 106.024 35.7737ZM13.8556 25.6736C12.2422 24.2595 12.0405 21.8355 13.4522 20.2195C14.864 18.6034 17.2842 18.4014 18.8976 19.8155C20.5111 21.2295 20.7127 23.6535 19.301 25.2696C18.4943 26.0776 17.4859 26.4816 16.2758 26.4816C15.4691 26.6836 14.6623 26.4816 13.8556 25.6736ZM89.2842 16.7854C87.469 15.5734 87.0657 13.1494 88.2758 11.3313C89.4858 9.5133 91.906 9.10929 93.7211 10.3213C95.5363 11.5333 95.9396 13.9574 94.7295 15.7754C93.9228 16.7854 92.7127 17.3914 91.5027 17.3914C90.6959 17.3914 89.8892 17.1894 89.2842 16.7854ZM35.2338 8.70528C34.427 6.68525 35.4354 4.46321 37.4522 3.6552C39.4691 2.84719 41.6875 3.8572 42.4943 5.87724C43.301 7.89727 42.2926 10.1193 40.2758 10.9273C39.8724 11.1293 39.2674 11.1293 38.864 11.1293C37.2506 11.1293 35.8388 10.1193 35.2338 8.70528ZM65.4859 7.69527C63.2674 7.49326 61.8556 5.47323 62.0573 3.4532C62.259 1.23116 64.2758 -0.182863 66.2926 0.0191399C68.5111 0.221143 69.9228 2.24118 69.7211 4.26121C69.5195 6.28124 67.906 7.69527 65.8892 7.69527C65.6875 7.89727 65.4859 7.69527 65.4859 7.69527Z" fill="#FFAF00"/>
<path d="M61.6539 107.283C61.4522 105.465 62.6623 104.051 64.4774 103.647C66.2926 103.445 67.906 104.657 68.1077 106.475C68.3094 108.293 67.0993 109.707 65.2842 110.111C65.0825 110.111 65.0825 110.111 64.8808 110.111C63.2674 110.111 61.8556 108.899 61.6539 107.283ZM41.4859 107.283C39.8724 106.677 39.0657 104.859 39.6707 103.243C40.2758 101.627 42.0909 100.819 43.7043 101.425C45.3178 102.031 46.1245 103.849 45.5195 105.465C45.1161 106.677 43.906 107.485 42.4943 107.485C42.2926 107.485 41.8892 107.283 41.4859 107.283ZM83.0321 100.819C82.0237 99.4048 82.427 97.3848 83.8388 96.3748C85.2506 95.3648 87.2674 95.7688 88.2758 97.1828C89.2842 98.5968 88.8808 100.617 87.469 101.627C86.864 102.031 86.259 102.233 85.6539 102.233C84.6455 102.233 83.6371 101.627 83.0321 100.819ZM21.9228 93.7487C20.7127 92.5367 20.9144 90.5167 22.1245 89.3046C23.3346 88.0926 25.3514 88.2946 26.5615 89.5067C27.7716 90.7187 27.5699 92.7387 26.3598 93.9507C25.7548 94.5567 24.948 94.7587 24.343 94.7587C23.5363 94.7587 22.5279 94.3547 21.9228 93.7487ZM98.9648 85.0626C97.3514 84.2546 96.7464 82.2345 97.5531 80.8205C98.3598 79.2045 100.377 78.5985 101.788 79.4065C103.402 80.2145 104.007 82.2345 103.2 83.6486C102.595 84.6586 101.587 85.2646 100.377 85.2646C99.9732 85.4666 99.3682 85.2646 98.9648 85.0626ZM10.8304 72.5384C10.427 70.9224 11.4354 69.1043 13.0489 68.7003C14.6623 68.2963 16.4775 69.3063 16.8808 70.9223C17.2842 72.5384 16.2758 74.3564 14.4606 74.7604C14.259 74.7604 13.8556 74.7604 13.6539 74.7604C12.4438 74.9624 11.2338 73.9524 10.8304 72.5384ZM102.595 60.6202C102.595 60.4182 102.595 60.4182 102.595 60.6202C102.595 58.6001 104.007 57.1861 105.822 57.1861C107.637 57.1861 109.049 58.6001 109.049 60.4182C109.049 60.4182 109.049 60.4182 109.049 60.6202C109.049 62.4382 107.637 63.8522 105.822 63.8522C104.007 63.8522 102.595 62.4382 102.595 60.6202ZM13.0489 52.54C11.4354 52.136 10.2254 50.318 10.6287 48.702C11.0321 47.086 12.8472 45.8739 14.4606 46.2779C16.0741 46.6819 17.2842 48.5 16.8808 50.116C16.4775 51.53 15.2674 52.54 13.8556 52.54C13.6539 52.7421 13.4522 52.7421 13.0489 52.54ZM97.5531 40.2178C96.7464 38.6018 97.3514 36.7838 98.9648 35.9758C100.578 35.1678 102.393 35.7738 103.2 37.3898C104.007 39.0058 103.402 40.8239 101.788 41.6319C101.385 41.8339 100.78 42.0359 100.377 42.0359C99.1665 41.8339 98.1581 41.2279 97.5531 40.2178ZM22.1245 32.1377C20.7127 30.9257 20.7127 28.9057 21.9228 27.6936C23.1329 26.2796 25.1497 26.2796 26.3598 27.4916C27.7716 28.7037 27.7716 30.7237 26.5615 31.9357C25.9564 32.7437 24.948 32.9457 24.1413 32.9457C23.5363 32.9457 22.7296 32.5417 22.1245 32.1377ZM83.6371 24.6636C82.2253 23.6536 81.822 21.6335 82.8304 20.2195C83.8388 18.8055 85.8556 18.4015 87.2674 19.4115C88.6791 20.4215 89.0825 22.4416 88.0741 23.8556C87.469 24.6636 86.4606 25.2696 85.4522 25.2696C84.8472 25.2696 84.2422 25.0676 83.6371 24.6636ZM39.469 17.9975C38.864 16.3815 39.6707 14.5634 41.2842 13.9574C42.8976 13.3514 44.7127 14.1594 45.3178 15.7754C45.9228 17.3915 45.1161 19.2095 43.5027 19.8155C43.0993 20.0175 42.6959 20.0175 42.2926 20.0175C41.2842 20.2195 40.0741 19.4115 39.469 17.9975ZM64.2758 17.3915C62.4606 17.1895 61.2506 15.5734 61.4522 13.9574C61.6539 12.1394 63.2674 10.9274 65.0825 11.1294C66.8976 11.3314 68.1077 12.9474 67.906 14.5634C67.7043 16.1795 66.2926 17.3915 64.6791 17.3915C64.4774 17.3915 64.4774 17.3915 64.2758 17.3915Z" fill="#FFAF00"/>
<path d="M61.2506 98.3948C61.0489 96.9808 62.0573 95.7687 63.4691 95.5667C64.8808 95.3647 66.0909 96.3748 66.2926 97.7888C66.4943 99.2028 65.4859 100.415 64.0741 100.617C63.8724 100.617 63.8724 100.617 63.6708 100.617C62.4607 100.617 61.4523 99.8088 61.2506 98.3948ZM44.9145 98.3948C43.5027 97.7888 42.8977 96.3748 43.5027 95.1627C44.1077 93.7487 45.5195 93.1427 46.7296 93.7487C48.1414 94.3547 48.7464 95.7687 48.1414 96.9808C47.738 97.9908 46.7296 98.5968 45.7212 98.5968C45.5195 98.5968 45.1161 98.5968 44.9145 98.3948ZM78.5951 93.1427C77.7884 91.9307 77.9901 90.3147 79.2002 89.5066C80.4103 88.6986 82.0237 88.9006 82.8304 90.1126C83.6371 91.3247 83.4355 92.9407 82.2254 93.7487C81.822 94.1527 81.217 94.1527 80.8136 94.1527C79.8052 94.3547 78.9985 93.9507 78.5951 93.1427ZM28.9817 87.4866C27.9733 86.4766 28.175 84.8606 29.1834 83.8506C30.1918 82.8405 31.8052 83.0425 32.8136 84.0526C33.822 85.0626 33.6203 86.6786 32.6119 87.6886C32.2086 88.0926 31.6035 88.2946 30.9985 88.2946C30.1918 88.2946 29.5867 88.0926 28.9817 87.4866ZM91.5027 80.4165C90.2926 79.8105 89.6876 78.1945 90.4943 76.9824C91.0993 75.7704 92.7128 75.1644 93.9229 75.9724C95.1329 76.5784 95.738 78.1945 94.9313 79.4065C94.5279 80.2145 93.5195 80.8205 92.7128 80.8205C92.3094 80.8205 91.9061 80.6185 91.5027 80.4165ZM20.1077 70.3163C19.7044 68.9023 20.5111 67.4883 21.9229 67.2863C23.3346 66.8823 24.7464 67.8923 24.9481 69.1043C25.3514 70.5183 24.343 71.9324 23.1329 72.1344C22.9313 72.1344 22.7296 72.1344 22.5279 72.1344C21.3178 72.3364 20.3094 71.5284 20.1077 70.3163ZM94.3262 60.6202C94.3262 60.4182 94.3262 60.4182 94.3262 60.6202C94.3262 59.0041 95.5363 57.9941 96.9481 57.9941C98.3598 57.9941 99.5699 59.2062 99.5699 60.6202C99.5699 62.0342 98.3598 63.2462 96.9481 63.2462C95.5363 63.2462 94.3262 62.0342 94.3262 60.6202ZM21.9229 54.1561C20.5111 53.7521 19.7044 52.338 20.1077 51.126C20.5111 49.712 21.9229 48.904 23.1329 49.308C24.5447 49.712 25.3514 51.126 24.9481 52.338C24.7464 53.5501 23.5363 54.3581 22.5279 54.3581C22.3262 54.1561 22.1245 54.1561 21.9229 54.1561ZM90.2926 44.0559C89.6876 42.8439 90.0909 41.2279 91.301 40.6218C92.5111 40.0158 94.1245 40.4198 94.7296 41.6319C95.3346 42.8439 94.9313 44.4599 93.7212 45.0659C93.3178 45.2679 92.9145 45.2679 92.5111 45.2679C91.7044 45.4699 90.696 45.0659 90.2926 44.0559ZM29.1834 37.5918C28.175 36.5818 27.9733 34.9658 28.9817 33.9557C29.9901 32.9457 31.6035 32.7437 32.6119 33.7537C33.6203 34.7638 33.822 36.3798 32.8136 37.3898C32.2086 37.9958 31.6035 38.1978 30.7968 38.1978C30.1918 38.1978 29.5867 37.9958 29.1834 37.5918ZM78.9985 31.5317C77.7884 30.7237 77.5867 29.1077 78.3935 27.8956C79.2002 26.6836 80.8136 26.4816 82.0237 27.2896C83.2338 28.0976 83.4355 29.7137 82.6287 30.9257C82.0237 31.7337 81.4187 32.1377 80.4103 32.1377C80.0069 31.9357 79.6035 31.7337 78.9985 31.5317ZM43.301 26.0776C42.696 24.6636 43.5027 23.2496 44.7128 22.6436C46.1245 22.0375 47.5363 22.8456 48.1414 24.0576C48.7464 25.4716 47.9397 26.8856 46.7296 27.2896C46.5279 27.4916 46.1245 27.4916 45.7212 27.4916C44.7128 27.8956 43.7044 27.0876 43.301 26.0776ZM63.2674 25.6736C61.8556 25.4716 60.8472 24.2596 61.0489 22.8456C61.2506 21.4315 62.4607 20.4215 63.8724 20.6235C65.2842 20.8255 66.2926 22.0375 66.0909 23.4516C65.8893 24.6636 64.8808 25.6736 63.4691 25.6736C63.4691 25.6736 63.4691 25.6736 63.2674 25.6736Z" fill="#FFAF00"/>
</svg>
